<svg xmlns="http://www.w3.org/2000/svg" viewBox="0 0 32 32">
  <defs>
    <linearGradient id="goldGradient" x1="0%" y1="0%" x2="100%" y2="100%">
      <stop offset="0%" style="stop-color:#D4AF37;stop-opacity:1" />
      <stop offset="100%" style="stop-color:#996515;stop-opacity:1" />
    </linearGradient>
  </defs>
  <circle cx="16" cy="16" r="15" fill="#121212" stroke="url(#goldGradient)" stroke-width="1"/>
  <path d="M16 7C14.5 7 13 7.5 11.5 8.5C10 9.5 9 11 9 13C9 15.5 11 17.5 16 20C21 17.5 23 15.5 23 13C23 11 22 9.5 20.5 8.5C19 7.5 17.5 7 16 7ZM16 17.5C13 16 11 14.5 11 13C11 12 11.5 11 12.5 10.5C13.5 10 14.5 9.5 16 9.5C17.5 9.5 18.5 10 19.5 10.5C20.5 11 21 12 21 13C21 14.5 19 16 16 17.5Z" fill="url(#goldGradient)"/>
  <path d="M16 11L14 14H18L16 11Z" fill="url(#goldGradient)"/>
</svg>
